Coordinates
version=1
nRows=12
nColumns=24
inDegrees=yes

Units are S.I. units (second, meters, Newtons, ...)
Angles are in degrees.

endheader
time	pelvis_tilt	pelvis_list	pelvis_rotation	pelvis_tx	pelvis_ty	pelvis_tz	hip_flexion_r	hip_adduction_r	hip_rotation_r	knee_angle_r	ankle_angle_r	subtalar_angle_r	mtp_angle_r	hip_flexion_l	hip_adduction_l	hip_rotation_l	knee_angle_l	ankle_angle_l	subtalar_angle_l	mtp_angle_l	lumbar_extension	lumbar_bending	lumbar_rotation
      1.14150000	      0.09126841	      0.39252598	     -1.26929249	     -0.06415821	      0.98021168	      0.34108517	    -19.81695426	      1.60396240	     -2.50354308	     -2.43128778	     16.66297965	      0.04750993	      3.53937485	     20.46421114	      1.28421663	     -0.46366653	      6.03709578	     -4.89714750	     -6.62242067	      1.79642115	    -13.58672289	      5.00956621	      7.81858933
      1.14566667	      0.09845198	      0.57205572	     -1.26174830	     -0.05824070	      0.97952059	      0.34056624	    -19.89247054	      1.34129720	     -2.79720936	     -3.05943852	     16.91357837	      0.52493235	      3.67728607	     20.46091636	      1.56447885	     -0.23124664	      5.85204121	     -5.14506691	     -6.81559512	      1.88104670	    -13.56146424	      4.78018902	      7.85531909
      1.14983333	      0.15674517	      0.79017897	     -1.25292270	     -0.05227502	      0.97894759	      0.34004539	    -20.01786648	      1.03614848	     -3.10008776	     -3.70104273	     17.13585274	      0.98825298	      3.82450034	     20.40424028	      1.88547907	     -0.00435276	      5.59548410	     -5.46174869	     -7.06825363	      1.97225027	    -13.58731076	      4.49859982	      7.87349480
      1.15400000	      0.17911333	      1.01544778	     -1.24116372	     -0.04629504	      0.97836749	      0.33949583	    -20.08135113	      0.72068207	     -3.39363835	     -4.39197296	     17.34265010	      1.42795463	      3.98913557	     20.40172947	      2.21402283	      0.24496627	      5.24824316	     -5.83013650	     -7.39222986	      2.07504529	    -13.56864329	      4.21199372	      7.88865282
      1.15816667	      0.20902419	      1.26423589	     -1.22799100	     -0.04028217	      0.97784153	      0.33894419	    -20.13841152	      0.37980992	     -3.68147503	     -5.11533276	     17.52729925	      1.85379123	      4.17105678	     20.39802223	      2.56622265	      0.49846174	      4.83199400	     -6.25951666	     -7.77807954	      2.18786869	    -13.55584782	      3.89894264	      7.89359160
      1.16233333	      0.23064431	      1.52011394	     -1.20981908	     -0.03425464	      0.97734560	      0.33837936	    -20.16816412	      0.03119260	     -3.96459058	     -5.87767943	     17.67671890	      2.24542079	      4.37358579	     20.41850744	      2.92696312	      0.75208017	      4.33818452	     -6.73776944	     -8.22682792	      2.31187981	    -13.52127936	      3.56760073	      7.88698515
      1.16650000	      0.24571718	      1.79028160	     -1.18689730	     -0.02821018	      0.97688115	      0.33779134	    -20.17333052	     -0.33336043	     -4.23952354	     -6.67670174	     17.78683673	      2.60352044	      4.60997438	     20.45631892	      3.30423969	      1.01630677	      3.78149999	     -7.24816938	     -8.73144187	      2.45136295	    -13.48465864	      3.22296115	      7.87419571
      1.17066667	      0.25018437	      2.07050255	     -1.16398258	     -0.02214831	      0.97644459	      0.33720060	    -20.15662664	     -0.70820090	     -4.48351487	     -7.49683311	     17.86239214	      2.91343784	      4.86015097	     20.52131021	      3.69155952	      1.25512716	      3.15887292	     -7.80695846	     -9.27829567	      2.58820410	    -13.43525433	      2.87465476	      7.85346135
      1.17483333	      0.26517552	      2.36383416	     -1.12323377	     -0.01607224	      0.97605576	      0.33656768	    -20.13359327	     -1.09431316	     -4.75046322	     -8.35468963	     17.86698384	      3.19719968	      5.25404344	     20.58075341	      4.09959610	      1.55311082	      2.48983413	     -8.33399459	     -9.90051360	      2.79269907	    -13.40129321	      2.50518290	      7.82354847
      1.17900000	      0.23231987	      2.64753348	     -1.10430827	     -0.00999909	      0.97566430	      0.33597339	    -20.04209099	     -1.47288277	     -4.91485930	     -9.23885821	     17.86147946	      3.38839362	      5.54620444	     20.71976148	      4.48762840	      1.72617566	      1.74519642	     -8.95436077	    -10.47930601	      2.91900789	    -13.30649544	      2.15274684	      7.78542182
      1.18316667	      0.21658993	      2.94714930	     -1.06557968	     -0.00390720	      0.97532894	      0.33534121	    -19.95368277	     -1.86340710	     -5.10229967	    -10.15778982	     17.78464357	      3.55234540	      5.86287826	     20.84224092	      4.89972040	      1.94203438	      0.97201415	     -9.52590812	    -11.11257377	      3.03765369	    -13.23050527	      1.77394672	      7.74052052
      1.18733333	      0.19134356	      3.24120359	     -1.02471178	      0.00218147	      0.97502698	      0.33470168	    -19.83422593	     -2.24683411	     -5.26380431	    -11.11289016	     17.65113911	      3.66663143	      6.22165245	     20.98638523	      5.30646398	      2.15526593	      0.15500668	    -10.07772128	    -11.77210177	      3.14939199	    -13.14706949	      1.40581951	      7.69043619
